<mxfile host="app.diagrams.net" agent="Mozilla/5.0 (Windows NT 10.0; Win64; x64) AppleWebKit/537.36 (KHTML, like Gecko) Chrome/130.0.0.0 Safari/537.36" version="24.8.3">
  <diagram name="PÃ¡gina-1" id="SKRLu6_MuARgDEXjkevO">
    <mxGraphModel dx="1613" dy="696" grid="1" gridSize="10" guides="1" tooltips="1" connect="1" arrows="1" fold="1" page="1" pageScale="1" pageWidth="827" pageHeight="1169" math="0" shadow="0">
      <root>
        <mxCell id="0" />
        <mxCell id="1" parent="0" />
        <mxCell id="l5hHfNC6Q23JsbaUlXzg-47" style="edgeStyle=orthogonalEdgeStyle;rounded=0;orthogonalLoop=1;jettySize=auto;html=1;entryX=0.5;entryY=1;entryDx=0;entryDy=0;" edge="1" parent="1" source="l5hHfNC6Q23JsbaUlXzg-9" target="l5hHfNC6Q23JsbaUlXzg-46">
          <mxGeometry relative="1" as="geometry" />
        </mxCell>
        <mxCell id="l5hHfNC6Q23JsbaUlXzg-9" value="Person" style="swimlane;fontStyle=1;align=center;verticalAlign=top;childLayout=stackLayout;horizontal=1;startSize=26;horizontalStack=0;resizeParent=1;resizeParentMax=0;resizeLast=0;collapsible=1;marginBottom=0;whiteSpace=wrap;html=1;" vertex="1" parent="1">
          <mxGeometry x="44" y="832" width="160" height="124" as="geometry" />
        </mxCell>
        <mxCell id="l5hHfNC6Q23JsbaUlXzg-24" value="- posX: float&lt;div&gt;- posY: float&lt;/div&gt;&lt;div&gt;- speed: float&lt;/div&gt;" style="text;strokeColor=none;fillColor=none;align=left;verticalAlign=top;spacingLeft=4;spacingRight=4;overflow=hidden;rotatable=0;points=[[0,0.5],[1,0.5]];portConstraint=eastwest;whiteSpace=wrap;html=1;" vertex="1" parent="l5hHfNC6Q23JsbaUlXzg-9">
          <mxGeometry y="26" width="160" height="54" as="geometry" />
        </mxCell>
        <mxCell id="l5hHfNC6Q23JsbaUlXzg-11" value="" style="line;strokeWidth=1;fillColor=none;align=left;verticalAlign=middle;spacingTop=-1;spacingLeft=3;spacingRight=3;rotatable=0;labelPosition=right;points=[];portConstraint=eastwest;strokeColor=inherit;" vertex="1" parent="l5hHfNC6Q23JsbaUlXzg-9">
          <mxGeometry y="80" width="160" height="14" as="geometry" />
        </mxCell>
        <mxCell id="l5hHfNC6Q23JsbaUlXzg-12" value="+ Walk(): void" style="text;strokeColor=none;fillColor=none;align=left;verticalAlign=top;spacingLeft=4;spacingRight=4;overflow=hidden;rotatable=0;points=[[0,0.5],[1,0.5]];portConstraint=eastwest;whiteSpace=wrap;html=1;" vertex="1" parent="l5hHfNC6Q23JsbaUlXzg-9">
          <mxGeometry y="94" width="160" height="30" as="geometry" />
        </mxCell>
        <mxCell id="l5hHfNC6Q23JsbaUlXzg-18" style="edgeStyle=orthogonalEdgeStyle;rounded=0;orthogonalLoop=1;jettySize=auto;html=1;" edge="1" parent="1" source="l5hHfNC6Q23JsbaUlXzg-14" target="l5hHfNC6Q23JsbaUlXzg-9">
          <mxGeometry relative="1" as="geometry" />
        </mxCell>
        <mxCell id="l5hHfNC6Q23JsbaUlXzg-14" value="Cityzen" style="swimlane;fontStyle=1;align=center;verticalAlign=top;childLayout=stackLayout;horizontal=1;startSize=26;horizontalStack=0;resizeParent=1;resizeParentMax=0;resizeLast=0;collapsible=1;marginBottom=0;whiteSpace=wrap;html=1;" vertex="1" parent="1">
          <mxGeometry x="44" y="980" width="160" height="34" as="geometry" />
        </mxCell>
        <mxCell id="l5hHfNC6Q23JsbaUlXzg-16" value="" style="line;strokeWidth=1;fillColor=none;align=left;verticalAlign=middle;spacingTop=-1;spacingLeft=3;spacingRight=3;rotatable=0;labelPosition=right;points=[];portConstraint=eastwest;strokeColor=inherit;" vertex="1" parent="l5hHfNC6Q23JsbaUlXzg-14">
          <mxGeometry y="26" width="160" height="8" as="geometry" />
        </mxCell>
        <mxCell id="l5hHfNC6Q23JsbaUlXzg-49" style="edgeStyle=orthogonalEdgeStyle;rounded=0;orthogonalLoop=1;jettySize=auto;html=1;" edge="1" parent="1" source="l5hHfNC6Q23JsbaUlXzg-19" target="l5hHfNC6Q23JsbaUlXzg-48">
          <mxGeometry relative="1" as="geometry">
            <mxPoint x="334" y="749.9999999999998" as="targetPoint" />
          </mxGeometry>
        </mxCell>
        <mxCell id="l5hHfNC6Q23JsbaUlXzg-19" value="Vehicle" style="swimlane;fontStyle=1;align=center;verticalAlign=top;childLayout=stackLayout;horizontal=1;startSize=26;horizontalStack=0;resizeParent=1;resizeParentMax=0;resizeLast=0;collapsible=1;marginBottom=0;whiteSpace=wrap;html=1;" vertex="1" parent="1">
          <mxGeometry x="254" y="832" width="160" height="124" as="geometry" />
        </mxCell>
        <mxCell id="l5hHfNC6Q23JsbaUlXzg-25" value="- posX: float&lt;div&gt;- posY: float&lt;/div&gt;&lt;div&gt;- speed: float&lt;/div&gt;&lt;div&gt;- isAlive: bool&lt;/div&gt;" style="text;strokeColor=none;fillColor=none;align=left;verticalAlign=top;spacingLeft=4;spacingRight=4;overflow=hidden;rotatable=0;points=[[0,0.5],[1,0.5]];portConstraint=eastwest;whiteSpace=wrap;html=1;" vertex="1" parent="l5hHfNC6Q23JsbaUlXzg-19">
          <mxGeometry y="26" width="160" height="64" as="geometry" />
        </mxCell>
        <mxCell id="l5hHfNC6Q23JsbaUlXzg-21" value="" style="line;strokeWidth=1;fillColor=none;align=left;verticalAlign=middle;spacingTop=-1;spacingLeft=3;spacingRight=3;rotatable=0;labelPosition=right;points=[];portConstraint=eastwest;strokeColor=inherit;" vertex="1" parent="l5hHfNC6Q23JsbaUlXzg-19">
          <mxGeometry y="90" width="160" height="8" as="geometry" />
        </mxCell>
        <mxCell id="l5hHfNC6Q23JsbaUlXzg-22" value="+ Move(): void" style="text;strokeColor=none;fillColor=none;align=left;verticalAlign=top;spacingLeft=4;spacingRight=4;overflow=hidden;rotatable=0;points=[[0,0.5],[1,0.5]];portConstraint=eastwest;whiteSpace=wrap;html=1;" vertex="1" parent="l5hHfNC6Q23JsbaUlXzg-19">
          <mxGeometry y="98" width="160" height="26" as="geometry" />
        </mxCell>
        <mxCell id="l5hHfNC6Q23JsbaUlXzg-28" style="edgeStyle=orthogonalEdgeStyle;rounded=0;orthogonalLoop=1;jettySize=auto;html=1;" edge="1" parent="1" source="l5hHfNC6Q23JsbaUlXzg-26" target="l5hHfNC6Q23JsbaUlXzg-19">
          <mxGeometry relative="1" as="geometry" />
        </mxCell>
        <mxCell id="l5hHfNC6Q23JsbaUlXzg-26" value="Fire Truck" style="swimlane;fontStyle=1;align=center;verticalAlign=top;childLayout=stackLayout;horizontal=1;startSize=26;horizontalStack=0;resizeParent=1;resizeParentMax=0;resizeLast=0;collapsible=1;marginBottom=0;whiteSpace=wrap;html=1;" vertex="1" parent="1">
          <mxGeometry x="254" y="980" width="160" height="110" as="geometry" />
        </mxCell>
        <mxCell id="l5hHfNC6Q23JsbaUlXzg-29" value="- maxWaterCapacity: int&lt;div&gt;- actualWaterQuantity: int&lt;/div&gt;" style="text;strokeColor=none;fillColor=none;align=left;verticalAlign=top;spacingLeft=4;spacingRight=4;overflow=hidden;rotatable=0;points=[[0,0.5],[1,0.5]];portConstraint=eastwest;whiteSpace=wrap;html=1;" vertex="1" parent="l5hHfNC6Q23JsbaUlXzg-26">
          <mxGeometry y="26" width="160" height="34" as="geometry" />
        </mxCell>
        <mxCell id="l5hHfNC6Q23JsbaUlXzg-27" value="" style="line;strokeWidth=1;fillColor=none;align=left;verticalAlign=middle;spacingTop=-1;spacingLeft=3;spacingRight=3;rotatable=0;labelPosition=right;points=[];portConstraint=eastwest;strokeColor=inherit;" vertex="1" parent="l5hHfNC6Q23JsbaUlXzg-26">
          <mxGeometry y="60" width="160" height="8" as="geometry" />
        </mxCell>
        <mxCell id="l5hHfNC6Q23JsbaUlXzg-30" value="+ TurnOffFire(): void&lt;div&gt;+ FillWater(): void&lt;/div&gt;" style="text;strokeColor=none;fillColor=none;align=left;verticalAlign=top;spacingLeft=4;spacingRight=4;overflow=hidden;rotatable=0;points=[[0,0.5],[1,0.5]];portConstraint=eastwest;whiteSpace=wrap;html=1;" vertex="1" parent="l5hHfNC6Q23JsbaUlXzg-26">
          <mxGeometry y="68" width="160" height="42" as="geometry" />
        </mxCell>
        <mxCell id="l5hHfNC6Q23JsbaUlXzg-42" value="Flame" style="swimlane;fontStyle=1;align=center;verticalAlign=top;childLayout=stackLayout;horizontal=1;startSize=26;horizontalStack=0;resizeParent=1;resizeParentMax=0;resizeLast=0;collapsible=1;marginBottom=0;whiteSpace=wrap;html=1;" vertex="1" parent="1">
          <mxGeometry x="570" y="890" width="160" height="108" as="geometry" />
        </mxCell>
        <mxCell id="l5hHfNC6Q23JsbaUlXzg-43" value="+ posX: float&lt;div&gt;+ posY:float&lt;/div&gt;&lt;div&gt;+ isOn: bool&lt;/div&gt;&lt;div&gt;+ waterNeeded: int&lt;/div&gt;" style="text;strokeColor=none;fillColor=none;align=left;verticalAlign=top;spacingLeft=4;spacingRight=4;overflow=hidden;rotatable=0;points=[[0,0.5],[1,0.5]];portConstraint=eastwest;whiteSpace=wrap;html=1;" vertex="1" parent="l5hHfNC6Q23JsbaUlXzg-42">
          <mxGeometry y="26" width="160" height="74" as="geometry" />
        </mxCell>
        <mxCell id="l5hHfNC6Q23JsbaUlXzg-44" value="" style="line;strokeWidth=1;fillColor=none;align=left;verticalAlign=middle;spacingTop=-1;spacingLeft=3;spacingRight=3;rotatable=0;labelPosition=right;points=[];portConstraint=eastwest;strokeColor=inherit;" vertex="1" parent="l5hHfNC6Q23JsbaUlXzg-42">
          <mxGeometry y="100" width="160" height="8" as="geometry" />
        </mxCell>
        <mxCell id="l5hHfNC6Q23JsbaUlXzg-53" style="edgeStyle=orthogonalEdgeStyle;rounded=0;orthogonalLoop=1;jettySize=auto;html=1;" edge="1" parent="1" source="l5hHfNC6Q23JsbaUlXzg-46" target="l5hHfNC6Q23JsbaUlXzg-52">
          <mxGeometry relative="1" as="geometry" />
        </mxCell>
        <mxCell id="l5hHfNC6Q23JsbaUlXzg-46" value="PersonController" style="swimlane;fontStyle=0;childLayout=stackLayout;horizontal=1;startSize=26;fillColor=none;horizontalStack=0;resizeParent=1;resizeParentMax=0;resizeLast=0;collapsible=1;marginBottom=0;whiteSpace=wrap;html=1;" vertex="1" parent="1">
          <mxGeometry x="54" y="700" width="140" height="52" as="geometry" />
        </mxCell>
        <mxCell id="l5hHfNC6Q23JsbaUlXzg-51" style="edgeStyle=orthogonalEdgeStyle;rounded=0;orthogonalLoop=1;jettySize=auto;html=1;entryX=0.5;entryY=1;entryDx=0;entryDy=0;" edge="1" parent="1" source="l5hHfNC6Q23JsbaUlXzg-48" target="l5hHfNC6Q23JsbaUlXzg-50">
          <mxGeometry relative="1" as="geometry" />
        </mxCell>
        <mxCell id="l5hHfNC6Q23JsbaUlXzg-48" value="VehicleController" style="swimlane;fontStyle=0;childLayout=stackLayout;horizontal=1;startSize=26;fillColor=none;horizontalStack=0;resizeParent=1;resizeParentMax=0;resizeLast=0;collapsible=1;marginBottom=0;whiteSpace=wrap;html=1;" vertex="1" parent="1">
          <mxGeometry x="264" y="700" width="140" height="52" as="geometry" />
        </mxCell>
        <mxCell id="l5hHfNC6Q23JsbaUlXzg-50" value="Events" style="swimlane;fontStyle=0;childLayout=stackLayout;horizontal=1;startSize=52;fillColor=none;horizontalStack=0;resizeParent=1;resizeParentMax=0;resizeLast=0;collapsible=1;marginBottom=0;whiteSpace=wrap;html=1;" vertex="1" parent="1">
          <mxGeometry x="264" y="550" width="140" height="52" as="geometry" />
        </mxCell>
        <mxCell id="l5hHfNC6Q23JsbaUlXzg-52" value="AIAgent" style="swimlane;fontStyle=0;childLayout=stackLayout;horizontal=1;startSize=26;fillColor=none;horizontalStack=0;resizeParent=1;resizeParentMax=0;resizeLast=0;collapsible=1;marginBottom=0;whiteSpace=wrap;html=1;" vertex="1" parent="1">
          <mxGeometry x="54" y="550" width="140" height="52" as="geometry" />
        </mxCell>
        <mxCell id="l5hHfNC6Q23JsbaUlXzg-68" value="WaterTank" style="swimlane;fontStyle=1;align=center;verticalAlign=top;childLayout=stackLayout;horizontal=1;startSize=26;horizontalStack=0;resizeParent=1;resizeParentMax=0;resizeLast=0;collapsible=1;marginBottom=0;whiteSpace=wrap;html=1;" vertex="1" parent="1">
          <mxGeometry x="570" y="1040" width="160" height="78" as="geometry" />
        </mxCell>
        <mxCell id="l5hHfNC6Q23JsbaUlXzg-69" value="+ posX&lt;div&gt;+ posY&lt;/div&gt;" style="text;strokeColor=none;fillColor=none;align=left;verticalAlign=top;spacingLeft=4;spacingRight=4;overflow=hidden;rotatable=0;points=[[0,0.5],[1,0.5]];portConstraint=eastwest;whiteSpace=wrap;html=1;" vertex="1" parent="l5hHfNC6Q23JsbaUlXzg-68">
          <mxGeometry y="26" width="160" height="44" as="geometry" />
        </mxCell>
        <mxCell id="l5hHfNC6Q23JsbaUlXzg-70" value="" style="line;strokeWidth=1;fillColor=none;align=left;verticalAlign=middle;spacingTop=-1;spacingLeft=3;spacingRight=3;rotatable=0;labelPosition=right;points=[];portConstraint=eastwest;strokeColor=inherit;" vertex="1" parent="l5hHfNC6Q23JsbaUlXzg-68">
          <mxGeometry y="70" width="160" height="8" as="geometry" />
        </mxCell>
        <mxCell id="l5hHfNC6Q23JsbaUlXzg-72" value="" style="endArrow=block;dashed=1;endFill=0;endSize=12;html=1;rounded=0;" edge="1" parent="1" source="l5hHfNC6Q23JsbaUlXzg-26" target="l5hHfNC6Q23JsbaUlXzg-42">
          <mxGeometry width="160" relative="1" as="geometry">
            <mxPoint x="490" y="1060" as="sourcePoint" />
            <mxPoint x="650" y="1060" as="targetPoint" />
          </mxGeometry>
        </mxCell>
        <mxCell id="l5hHfNC6Q23JsbaUlXzg-73" value="" style="endArrow=block;dashed=1;endFill=0;endSize=12;html=1;rounded=0;" edge="1" parent="1" source="l5hHfNC6Q23JsbaUlXzg-26" target="l5hHfNC6Q23JsbaUlXzg-68">
          <mxGeometry width="160" relative="1" as="geometry">
            <mxPoint x="470" y="1080" as="sourcePoint" />
            <mxPoint x="525" y="1040" as="targetPoint" />
          </mxGeometry>
        </mxCell>
      </root>
    </mxGraphModel>
  </diagram>
</mxfile>
